<svg width="512" height="512" viewBox="0 0 24 24" fill="none" xmlns="http://www.w3.org/2000/svg">
    <rect width="24" height="24" rx="4" fill="#1e40af"/>
    <path d="M16.5 18.75h-9a9.75 9.75 0 0 1 9 0Z M12.75 21.75a.75.75 0 0 0-1.5 0V18.75h1.5v3ZM12 15.75A5.25 5.25 0 0 0 6.75 21v-1.125a5.25 5.25 0 0 1 10.5 0V21a5.25 5.25 0 0 0-5.25-5.25Z M4.125 9.75a.75.75 0 0 0-1.5 0v3.75c0 .414.336.75.75.75h.75c.414 0 .75-.336.75-.75V9.75Z M19.875 9.75a.75.75 0 0 1 1.5 0v3.75c0 .414-.336.75-.75.75h-.75a.75.75 0 0 1-.75-.75V9.75Z M12 15.75a5.25 5.25 0 0 0-5.25-5.25V6a5.25 5.25 0 0 1 10.5 0v4.5A5.25 5.25 0 0 0 12 15.75Z" stroke="#f59e0b" stroke-width="1.5" stroke-linecap="round" stroke-linejoin="round"/>
</svg>
